<svg class=" " viewBox="0 0 1600 800"><path d="M4,557.597C4,557.597,28.059,574.86,40.201,579.167C50.864,582.949,62.365,584.987,72.362,583.842C81.603,582.784,92.315,579.632,98.232,573.737C103.964,568.027,107.622,558.193,107.807,549.495C108.019,539.53,102.514,526.576,96.604,517.172C90.697,507.772,81.744,499.122,72.362,493.08C62.951,487.02,51.099,482.477,40.201,480.901C29.647,479.375,8.04,483.311,8.04,483.311" stroke="#71717a" stroke-width="2" fill="none" stroke-linecap="round" stroke-miterlimit="4"></path><path d="M1117.588,578.256C1119.866,581.506,1127.533,584.082,1133.668,584.09C1141.869,584.1,1161.445,578.292,1162.427,573.737C1163.173,570.275,1155.502,563.036,1149.749,561.438C1141.883,559.253,1121.31,564.226,1117.588,568.913C1115.608,571.406,1115.904,575.855,1117.588,578.256" stroke="#71717a" stroke-width="2" fill="none" stroke-linecap="round" stroke-miterlimit="4"></path><path d="M4,609.008C4,609.008,38.226,625.347,56.281,628.628C74.408,631.922,95.853,632.9,112.563,628.655C127.63,624.827,143.894,616.86,152.764,606.794C160.574,597.93,164.924,586.016,165.655,573.737C166.535,558.945,160.602,539.919,152.764,523.875C143.896,505.723,128.212,484.776,112.563,471.631C98.34,459.684,81.562,451.371,64.322,446.373C46.764,441.283,8.04,441.749,8.04,441.749" stroke="#71717a" stroke-width="2" fill="none" stroke-linecap="round" stroke-miterlimit="4"></path><path d="M1038.461,589.899C1041.11,596.258,1046.735,601.775,1053.266,606.515C1061.469,612.469,1073.856,617.496,1085.427,620.598C1097.847,623.927,1109.973,626.004,1125.628,625.081C1148.163,623.751,1188.683,614.208,1207.251,606.061C1218.117,601.292,1224.809,596.731,1230.973,589.899C1237.012,583.205,1243.425,573.049,1244.07,565.657C1244.577,559.844,1242.237,554.388,1238.694,549.495C1234.221,543.32,1226.811,537.677,1216.905,533.333C1201.18,526.438,1172.559,520.619,1149.749,520.541C1126.086,520.46,1095.131,527.161,1077.387,533.812C1065.923,538.11,1057.87,543.107,1050.98,549.495C1044.886,555.146,1039.164,562.161,1037.186,569.173C1035.347,575.691,1035.903,583.756,1038.461,589.899" stroke="#71717a" stroke-width="2" fill="none" stroke-linecap="round" stroke-miterlimit="4"></path><path d="M4,641.747C4,641.747,49.711,658.834,72.362,661.291C93.926,663.631,117.063,662.825,136.683,657.276C155.203,652.037,175.718,642.651,187.376,630.303C197.637,619.435,203.941,602.896,205.981,589.899C207.727,578.78,205.006,568.742,202.08,557.576C198.688,544.634,193.658,531.565,185.353,517.172C174.121,497.705,155.438,469.581,136.683,453.693C119.94,439.51,101.008,430.05,80.402,423.749C58.388,417.018,8.04,416.157,8.04,416.157" stroke="#71717a" stroke-width="2" fill="none" stroke-linecap="round" stroke-miterlimit="4"></path><path d="M994.677,589.899C998.105,600.971,1010.121,613.873,1021.004,622.222C1032.206,630.816,1046.411,636.094,1061.307,640.294C1078.19,645.055,1098.203,647.568,1117.588,647.545C1138.314,647.522,1161.473,644.27,1181.91,639.107C1201.602,634.132,1221.862,626.578,1238.191,617.636C1252.553,609.771,1267.193,600.876,1275.633,589.899C1282.925,580.416,1289.182,567.418,1288.462,557.576C1287.815,548.745,1280.891,539.983,1274.455,533.333C1267.727,526.382,1258.951,521.811,1248.478,517.172C1234.76,511.095,1214.779,505.789,1197.99,502.794C1181.872,499.919,1168.528,498.12,1149.749,499.139C1122.944,500.592,1077.45,507.867,1052.839,517.172C1035.965,523.552,1022.805,532.235,1013.065,540.959C1005.685,547.569,1000.067,554.116,996.985,562.158C993.832,570.384,991.876,580.851,994.677,589.899" stroke="#71717a" stroke-width="2" fill="none" stroke-linecap="round" stroke-miterlimit="4"></path><path d="M4,668.511C4,668.511,54.462,684.999,80.402,686.716C106.716,688.458,136.944,686.034,160.804,678.508C182.319,671.722,205.493,657.971,218.176,646.465C226.674,638.754,231.277,630.681,234.994,622.222C238.404,614.46,240.078,606.677,240.452,597.98C240.88,588.015,239.157,577.139,236.043,565.657C232.212,551.531,226.369,536.714,217.085,520.068C204.113,496.805,182.649,461.235,160.804,441.783C141.718,424.788,120.472,413.814,96.482,406.01C70.088,397.423,8.04,395.213,8.04,395.213" stroke="#71717a" stroke-width="2" fill="none" stroke-linecap="round" stroke-miterlimit="4"></path><path d="M962.257,597.98C966.328,610.394,977.31,621.069,989.169,630.303C1003.586,641.528,1025.406,651.21,1045.226,657.148C1065.482,663.217,1087.465,665.758,1109.548,665.923C1132.947,666.098,1157.956,662.857,1181.91,657.152C1206.839,651.214,1234.727,641.232,1256.156,630.303C1274.453,620.972,1292.041,611.04,1303.785,597.98C1314.26,586.33,1324.576,569.488,1325.345,557.576C1325.923,548.615,1321.951,540.841,1316.183,533.333C1308.456,523.277,1292.896,513.501,1278.392,506.249C1262.052,498.079,1241.712,492.567,1222.111,488.502C1201.592,484.248,1179.242,482.108,1157.789,481.824C1136.361,481.54,1113.818,483.345,1093.467,486.784C1074.542,489.982,1056.513,494.454,1039.517,501.01C1023.009,507.379,1005.687,515.399,992.787,525.253C981.368,533.976,969.937,543.585,964.824,555.591C959.637,567.772,958.166,585.506,962.257,597.98" stroke="#71717a" stroke-width="2" fill="none" stroke-linecap="round" stroke-miterlimit="4"></path><path d="M1596,166.704C1596,166.704,1585.276,158.634,1584.738,153.535C1584.11,147.584,1596,132.784,1596,132.784" stroke="#71717a" stroke-width="2" fill="none" stroke-linecap="round" stroke-miterlimit="4"></path><path d="M4,692.862C4,692.862,65.974,709.005,96.482,709.308C126.267,709.604,158.624,705.019,184.925,695.387C209.039,686.555,235.418,669.595,249.246,656.304C258.149,647.746,262.733,639.178,266.49,630.303C269.84,622.388,271.573,615.192,271.789,606.061C272.067,594.327,269.166,579.457,264.944,565.657C260.131,549.927,251.702,533.679,242.944,517.172C233.168,498.747,220.345,476.679,208.292,460.606C198.177,447.118,190.706,436.677,176.884,426.02C158.619,411.937,131.199,396.611,104.523,388.338C75.406,379.308,8.04,376.574,8.04,376.574" stroke="#71717a" stroke-width="2" fill="none" stroke-linecap="round" stroke-miterlimit="4"></path><path d="M930.661,597.98C935.368,612.51,948.841,626.893,962.969,638.384C979.574,651.889,1003.99,663.364,1026.702,670.707C1050.082,678.266,1075.501,682.103,1101.508,682.475C1129.727,682.879,1161.547,678.082,1189.95,671.145C1217.786,664.346,1245.643,654.217,1270.352,641.639C1294.002,629.599,1320.517,614.207,1335.553,597.98C1347.115,585.502,1357.282,570.532,1358.358,557.576C1359.284,546.422,1354.05,534.814,1346.627,525.253C1337.377,513.338,1319.276,503.306,1302.513,495.162C1283.672,486.009,1261.082,479.635,1238.191,474.85C1213.129,469.61,1183.9,466.634,1157.789,466.27C1133.05,465.925,1109.343,467.719,1085.427,471.958C1061.095,476.27,1034.304,483.461,1013.065,492.169C994.87,499.629,978.468,507.792,964.824,518.887C951.927,529.375,938.181,542.386,932.663,556.219C927.581,568.961,926.429,584.918,930.661,597.98" stroke="#71717a" stroke-width="2" fill="none" stroke-linecap="round" stroke-miterlimit="4"></path><path d="M1596,210.449C1596,210.449,1556.53,199.889,1543.719,193.022C1535.126,188.417,1528.632,183.574,1524.171,177.778C1520.415,172.897,1517.087,167.877,1517.273,161.616C1517.541,152.639,1524.197,139.278,1533.407,129.293C1546.512,115.085,1596,91.463,1596,91.463" stroke="#71717a" stroke-width="2" fill="none" stroke-linecap="round" stroke-miterlimit="4"></path><path d="M4,716.9C4,716.9,71.12,730.859,104.523,729.909C138.015,728.958,178.437,719.923,204.681,711.111C223.026,704.952,236.194,697.511,249.246,688.901C261.031,681.127,272.13,671.837,280.191,662.626C286.983,654.866,292.189,647.436,295.769,638.384C299.593,628.717,301.988,617.406,301.722,606.061C301.423,593.314,297.43,579.938,292.304,565.657C285.982,548.039,274.916,528.171,264.27,509.091C252.747,488.44,238.335,463.605,225.126,446.346C214.626,432.628,207.6,422.762,193.32,412.121C173.492,397.348,142.027,381.089,112.563,372.241C80.698,362.671,8.04,359.128,8.04,359.128" stroke="#71717a" stroke-width="2" fill="none" stroke-linecap="round" stroke-miterlimit="4"></path><path d="M904.323,606.061C912.197,623.271,932.221,641.188,951.411,654.545C972.929,669.524,1002.446,681.687,1029.146,688.904C1055.196,695.946,1082.154,698.584,1109.548,697.932C1138.372,697.247,1168.298,691.77,1197.99,683.717C1229.906,675.06,1265.628,661.486,1294.472,646.255C1320.663,632.426,1349.505,612.435,1364.841,597.98C1374.038,589.31,1379.456,582.271,1383.67,573.737C1387.478,566.026,1391.212,558.338,1390.042,549.495C1388.446,537.442,1378.427,520.346,1366.893,509.091C1353.365,495.89,1331.555,486.888,1310.553,478.618C1286.634,469.201,1257.807,462.198,1230.151,457.712C1201.583,453.078,1170.456,451.059,1141.709,451.754C1114.238,452.419,1087.369,455.501,1061.307,461.095C1035.633,466.606,1008.793,474.696,986.436,484.848C966.43,493.934,947.236,503.953,932.663,517.473C918.995,530.153,904.79,546.782,900.503,562.491C896.691,576.459,897.988,592.216,904.323,606.061" stroke="#71717a" stroke-width="2" fill="none" stroke-linecap="round" stroke-miterlimit="4"></path><path d="M1596,237.275C1596,237.275,1527.618,219.579,1508.206,210.101C1497.438,204.843,1491.021,200.747,1484.997,193.939C1479.066,187.236,1473.122,177.965,1472.186,169.697C1471.291,161.788,1474.5,153.063,1478.656,145.455C1483.407,136.756,1489.837,129.902,1500.749,121.212C1520.672,105.346,1596,67.524,1596,67.524" stroke="#71717a" stroke-width="2" fill="none" stroke-linecap="round" stroke-miterlimit="4"></path><path d="M4,742.385C4,742.385,76.245,752.535,112.563,749.815C149.945,747.016,196.878,734.989,225.126,724.901C243.44,718.36,254.94,711.745,268.375,703.03C281.729,694.368,295.841,683.249,305.528,672.819C313.462,664.276,319.611,656.153,323.901,646.465C328.26,636.622,331.047,624.941,331.296,614.141C331.543,603.392,329.134,593.424,325.452,581.818C320.753,567.01,312.559,551.647,302.882,533.333C289.426,507.866,266.782,467.746,250.018,444.444C237.982,427.714,227.931,415.327,215.234,404.04C203.407,393.528,190.841,385.494,176.884,378.181C162.117,370.444,148.723,364.619,128.643,359.359C97.848,351.293,8.04,342.317,8.04,342.317" stroke="#71717a" stroke-width="2" fill="none" stroke-linecap="round" stroke-miterlimit="4"></path><path d="M869.134,573.737C868.647,583.757,869.731,595.001,875.224,606.061C882.968,621.655,900.438,640.256,919.112,654.545C941.787,671.896,974.729,688.554,1005.025,698.314C1035.507,708.133,1068.724,713.361,1101.508,713.105C1135.672,712.839,1170.733,705.585,1206.03,695.407C1244.752,684.241,1289.778,665.732,1323.844,646.465C1353.281,629.815,1385.095,606.016,1400.494,589.899C1409.016,580.979,1413.328,574.111,1416.733,565.657C1419.861,557.891,1422.77,550.152,1421.035,541.414C1418.614,529.224,1407.637,512.42,1395.272,501.01C1380.479,487.361,1357.34,477.801,1334.673,468.899C1308.485,458.614,1276.596,450.535,1246.231,445.261C1215.005,439.837,1181.199,437.007,1149.749,437.255C1119.616,437.492,1089.844,440.53,1061.307,445.998C1033.618,451.304,1005.703,458.976,980.905,469.127C957.713,478.621,934.527,489.847,916.583,504.014C900.306,516.865,883.914,535.276,876.382,548.832C871.438,557.73,869.566,564.84,869.134,573.737" stroke="#71717a" stroke-width="2" fill="none" stroke-linecap="round" stroke-miterlimit="4"></path><path d="M1596,260.722C1596,260.722,1505.933,238.292,1479.397,225.463C1463.983,218.012,1453.402,211.019,1445.637,202.02C1439.337,194.719,1434.68,186.045,1433.624,177.778C1432.614,169.868,1434.671,161.67,1438.691,153.535C1443.969,142.855,1452.469,132.809,1466.58,121.212C1492.93,99.557,1596,47.647,1596,47.647" stroke="#71717a" stroke-width="2" fill="none" stroke-linecap="round" stroke-miterlimit="4"></path><path d="M4,771.914C4,771.914,88.467,774.279,128.643,768.605C167.444,763.125,207.354,753.886,241.206,739.375C272.519,725.952,306.562,703.887,325.728,686.869C338.088,675.893,345.62,665.93,351.57,654.545C356.942,644.269,360.397,633.083,361.174,622.222C361.939,611.532,359.954,601.473,356.421,589.899C351.888,575.053,343.579,560.606,333.202,541.414C317.004,511.458,286.015,456.923,265.327,429.399C251.745,411.329,240.704,399.154,227.084,387.879C214.804,377.712,202.395,370.611,188.115,363.636C172.512,356.016,158.035,350.178,136.683,344.739C103.79,336.36,8.04,325.728,8.04,325.728" stroke="#71717a" stroke-width="2" fill="none" stroke-linecap="round" stroke-miterlimit="4"></path><path d="M839.518,581.818C839.894,590.22,840.833,597.026,845.884,606.061C854.853,622.105,877.553,646.398,900.503,663.214C928.356,683.625,970.014,703.858,1005.025,714.568C1037.043,724.362,1068.181,728.731,1101.508,727.873C1137.657,726.942,1176.351,717.822,1214.07,706.394C1254.737,694.073,1300.7,674.199,1336.762,654.545C1368.081,637.478,1400.703,615.553,1419.779,597.98C1432.05,586.675,1440.384,576.2,1445.92,565.657C1450.237,557.435,1453.7,550.391,1453.073,541.414C1452.242,529.519,1445.626,512.98,1434.715,501.01C1419.931,484.792,1390.943,471.703,1363.973,460.606C1332.13,447.504,1291.374,437.504,1254.271,431.217C1217.283,424.95,1177.75,422.124,1141.709,422.88C1108.274,423.581,1077.061,427.268,1045.226,434.111C1012.726,441.097,977.753,451.406,948.744,464.759C922.302,476.93,895.425,492.328,877.274,509.091C862.497,522.738,850.089,540.141,844.221,553.98C840.045,563.828,839.119,572.901,839.518,581.818" stroke="#71717a" stroke-width="2" fill="none" stroke-linecap="round" stroke-miterlimit="4"></path><path d="M1596,283.026C1596,283.026,1531.034,268.23,1503.518,259.223C1480.478,251.681,1458.239,243.819,1441.362,234.343C1428.242,226.977,1416.326,220.064,1408.966,210.101C1402.187,200.924,1396.972,188.47,1397.383,177.778C1397.801,166.919,1404.626,155.548,1411.855,145.455C1420.226,133.767,1429.999,125.251,1446.641,113.131C1478.237,90.122,1596,29.554,1596,29.554" stroke="#71717a" stroke-width="2" fill="none" stroke-linecap="round" stroke-miterlimit="4"></path><path d="M96.482,795.76C96.482,795.76,186.896,779.095,225.126,765.658C258.058,754.082,287.434,741.078,313.568,723.353C338.538,706.419,367.172,679.349,379.311,662.626C385.939,653.496,388.43,647.277,390.453,638.384C392.68,628.594,393.059,617.218,390.989,606.061C388.587,593.108,383.27,582.659,374.693,565.657C358.191,532.947,316.089,462.801,290.267,428.283C272.859,405.011,261.831,389.081,241.206,373.839C217.411,356.255,186.675,343.137,152.764,332.69C111.184,319.879,8.04,309,8.04,309" stroke="#71717a" stroke-width="2" fill="none" stroke-linecap="round" stroke-miterlimit="4"></path><path d="M808.414,581.818C809.406,592.093,812.111,602.802,819.604,614.141C831.587,632.274,858.384,655.216,884.422,672.872C915.592,694.009,959.23,716.461,996.985,728.026C1031.629,738.638,1065.538,743.921,1101.508,742.637C1140.389,741.249,1181.042,730.202,1222.111,716.898C1268.032,702.021,1322.101,677.728,1363.128,654.545C1398.168,634.746,1435.048,609.167,1455.165,589.899C1467.277,578.298,1474.8,568.983,1480.014,557.576C1484.704,547.314,1488.772,536.174,1486.634,525.253C1484.041,512.001,1473.39,496.764,1459.666,484.848C1440.57,468.267,1406.276,455.309,1374.874,444.122C1338.812,431.275,1294.743,421.04,1254.271,415.03C1214.334,409.1,1173.097,406.392,1133.668,408.013C1095.421,409.585,1056.798,415.38,1021.106,423.909C987.305,431.986,953.701,443.114,924.623,456.831C898.203,469.293,872.267,483.338,852.998,501.01C835.596,516.969,818.481,540.473,812.06,556.094C808.11,565.706,807.55,572.864,808.414,581.818" stroke="#71717a" stroke-width="2" fill="none" stroke-linecap="round" stroke-miterlimit="4"></path><path d="M1596,305.889C1596,305.889,1453.582,268.66,1415.075,249.292C1394.736,239.062,1381.095,230.253,1372.305,218.182C1365.255,208.501,1361.262,196.551,1361.703,185.859C1362.151,175,1367.943,164.132,1375.345,153.535C1384.962,139.767,1398.118,128.229,1418.651,113.131C1456.761,85.108,1596,12.219,1596,12.219" stroke="#71717a" stroke-width="2" fill="none" stroke-linecap="round" stroke-miterlimit="4"></path><path d="M193.587,796C193.587,796,266.058,771.523,297.487,755.148C326.363,740.103,354.446,722.554,376.002,703.03C394.979,685.843,415.154,665.86,422.201,646.465C427.943,630.661,428.577,618.409,422.792,597.98C410.205,553.534,332.291,444.462,300.09,404.04C283.518,383.237,275.94,373.686,257.286,360.88C232.727,344.019,197.617,329.618,160.804,318.517C115.562,304.873,4,291.269,4,291.269" stroke="#71717a" stroke-width="2" fill="none" stroke-linecap="round" stroke-miterlimit="4"></path><path d="M774.034,581.818C774.983,592.646,778.425,602.901,786.189,614.141C798.414,631.842,823.965,652.536,850.479,670.707C885.224,694.518,945.837,724.809,980.905,738.613C1003.004,747.312,1018.261,750.957,1037.186,754.189C1055.787,757.365,1071.026,759.692,1093.467,758.037C1127.755,755.509,1177.303,744.753,1222.111,729.882C1274.866,712.374,1340.718,681.89,1388.387,654.545C1427.966,631.842,1469.27,602.645,1491.083,581.818C1503.532,569.931,1510.613,560.872,1516.295,549.495C1521.43,539.213,1525.295,527.136,1525.03,517.172C1524.798,508.474,1521.609,500.272,1517.073,492.929C1512.12,484.913,1506.022,478.744,1495.477,471.518C1476.657,458.619,1440.748,443.31,1407.035,431.97C1365.285,417.926,1309.42,404.966,1262.312,398.316C1218.448,392.124,1175.033,389.792,1133.668,391.619C1094.81,393.335,1058.244,398.85,1021.106,407.513C983.186,416.359,942.299,429.23,908.543,444.575C878.352,458.3,849.174,473.879,827.006,492.929C807.375,509.799,787.918,533.206,779.899,550.438C774.645,561.73,773.121,571.407,774.034,581.818" stroke="#71717a" stroke-width="2" fill="none" stroke-linecap="round" stroke-miterlimit="4"></path><path d="M1596,331.903C1596,331.903,1426.05,283.947,1382.915,263.034C1362.219,253,1349.903,245.75,1340.089,234.343C1331.919,224.847,1325.473,213.529,1324.855,202.02C1324.178,189.431,1330.802,174.196,1338.833,161.616C1348.202,146.94,1360.216,136.695,1380.705,121.212C1421.722,90.217,1582.284,4,1582.284,4" stroke="#71717a" stroke-width="2" fill="none" stroke-linecap="round" stroke-miterlimit="4"></path><path d="M254.104,796C254.104,796,316.702,767.919,345.729,749.829C374.998,731.587,408.043,708.019,428.914,686.869C444.768,670.802,459.654,654.694,464.605,638.384C468.663,625.016,468.476,613.738,462.779,597.98C452.161,568.607,403.209,522.634,377.889,485.991C354.9,452.721,336.402,412.548,316.285,387.879C301.996,370.357,292.04,359.449,274.051,347.475C250.849,332.03,220.386,319.707,184.925,308.597C136.632,293.467,8.04,273.495,8.04,273.495" stroke="#71717a" stroke-width="2" fill="none" stroke-linecap="round" stroke-miterlimit="4"></path><path d="M733.106,581.818C734.117,592.558,738.08,602.78,746.913,614.141C762.284,633.912,797.765,657.685,831.458,678.788C874.823,705.95,949.013,743.368,988.945,758.059C1011.833,766.48,1026.33,769.291,1045.226,771.757C1063.855,774.189,1082.202,774.485,1101.508,772.93C1122.315,771.254,1143.418,766.955,1165.829,761.119C1191.369,754.468,1214.12,747.04,1246.231,733.767C1297.516,712.571,1388.475,670.599,1440.722,638.384C1479.659,614.375,1515.059,587.929,1536.567,565.657C1550.354,551.379,1559.278,538.565,1565.058,525.253C1569.782,514.374,1572.331,502.863,1571.782,492.929C1571.3,484.199,1568.388,475.75,1563.871,468.687C1559.18,461.353,1553.645,456.167,1543.719,449.978C1525.294,438.491,1490.633,426.41,1455.276,416.005C1405.351,401.312,1327.62,384.293,1270.352,377.426C1221.625,371.584,1178.402,370.048,1133.668,372.915C1089.999,375.714,1047.064,383.254,1005.025,393.805C962.875,404.384,918.595,418.774,881.114,436.364C846.959,452.393,812.797,471.584,788.172,492.929C767.561,510.796,748.091,534.502,739.698,551.764C734.367,562.73,732.16,571.77,733.106,581.818" stroke="#71717a" stroke-width="2" fill="none" stroke-linecap="round" stroke-miterlimit="4"></path><path d="M1596,369.421C1596,369.421,1382.256,298.462,1336.736,274.747C1318.918,265.465,1310.728,260.427,1302.083,250.505C1294.073,241.311,1286.878,229.827,1285.54,218.182C1284.106,205.712,1288.298,190.898,1295.605,177.778C1304.921,161.051,1319.663,147.378,1342.822,129.293C1387.243,94.605,1557.986,4,1557.986,4" stroke="#71717a" stroke-width="2" fill="none" stroke-linecap="round" stroke-miterlimit="4"></path><path d="M302.1,796C302.1,796,363.933,762.41,393.97,742.12C425.426,720.871,464.005,692.272,486.409,670.707C501.448,656.23,515.171,643.929,520.158,630.303C524.066,619.626,525.522,610.392,520.346,597.98C509.454,571.863,448.151,534.368,418.09,497.874C388.214,461.603,363.845,408.493,340.386,379.798C325.042,361.029,315.641,349.607,297.487,337.178C274.859,321.686,247.052,310.696,211.637,298.99C158.866,281.547,8.04,253.479,8.04,253.479" stroke="#71717a" stroke-width="2" fill="none" stroke-linecap="round" stroke-miterlimit="4"></path><path d="M1596,538.468C1596,538.468,1539.983,589.992,1504.739,614.141C1462.891,642.816,1409.905,670.499,1358.794,695.615C1305.218,721.943,1240.222,752.023,1189.95,767.867C1151.615,779.95,1117.193,788.054,1085.427,789.742C1059.212,791.134,1037.424,788.289,1013.065,782.47C986.546,776.134,965.094,766.422,932.663,751.391C878.994,726.516,764.524,663.123,725.399,638.384C709.048,628.045,700.64,623.045,692.046,614.141C684.81,606.644,676.911,599.357,675.705,589.899C674.246,578.449,681.569,563.169,689.977,549.495C701.34,531.015,724.781,509.362,744.069,492.929C762.464,477.257,780.976,465.082,802.685,452.525C827.17,438.363,851.062,426.224,884.422,413.517C933.065,394.989,1002.804,373.263,1069.347,359.821C1144.581,344.622,1303.982,358.281,1313.842,331.313C1320.119,314.147,1256.03,279.355,1245.597,258.586C1239.61,246.668,1238.813,237.497,1239.802,226.263C1240.934,213.398,1245.308,199.691,1254.687,185.859C1268.742,165.128,1294.765,144.035,1326.614,121.212C1376.733,85.296,1535.463,4,1535.463,4" stroke="#71717a" stroke-width="2" fill="none" stroke-linecap="round" stroke-miterlimit="4"></path><path d="M344.078,796C344.078,796,504.622,689.859,546.734,666.66C564.834,656.689,573.212,651.753,586.935,647.784C600.041,643.993,613.137,642.605,627.136,642.771C642.496,642.953,658.343,645.802,675.377,649.952C695.489,654.853,711.579,660.441,739.698,672.001C797.286,695.675,996.501,796,996.501,796" stroke="#71717a" stroke-width="2" fill="none" stroke-linecap="round" stroke-miterlimit="4"></path><path d="M1145.064,796C1145.064,796,1204.039,777.068,1238.191,763.112C1281.831,745.278,1337.012,718.784,1384.343,694.949C1430.391,671.761,1480.4,645.363,1518.549,622.222C1548.398,604.116,1596,569.928,1596,569.928" stroke="#71717a" stroke-width="2" fill="none" stroke-linecap="round" stroke-miterlimit="4"></path><path d="M1514.017,4C1514.017,4,1375.817,75.168,1325.942,105.051C1291.434,125.725,1262.635,143.054,1240.824,161.616C1224.812,175.242,1214.266,185.054,1203.395,202.02C1189.697,223.401,1182.019,264.489,1169.946,282.828C1162.437,294.235,1160.432,298.212,1146.347,307.071C1101.981,334.974,901.026,383.038,828.141,413.93C788.06,430.918,768.43,442.24,738.003,460.606C704.197,481.012,662.252,517.85,635.176,532.219C619.301,540.644,610.219,545.641,594.975,547.695C576.301,550.211,551.43,547.827,530.653,541.264C508.455,534.253,485.27,519.853,466.332,505.097C447.875,490.717,434.243,474.919,418.09,454.263C397.211,427.561,376.833,380.139,355.088,355.556C338.976,337.341,324.086,325.567,305.528,314.613C286.28,303.253,269.711,298.404,241.206,289.225C188.05,272.108,8.04,230.4,8.04,230.4" stroke="#71717a" stroke-width="2" fill="none" stroke-linecap="round" stroke-miterlimit="4"></path><path d="M1493.279,4C1493.279,4,1269.354,117.484,1214.969,153.535C1190.407,169.817,1181.62,177.319,1164.77,193.939C1143.862,214.564,1121.326,251.897,1101.508,270.375C1087.559,283.381,1081.753,288.08,1061.546,298.99C1012.913,325.247,873.787,367.097,795.98,401.594C732.586,429.7,666.835,470.64,627.136,486.503C606.633,494.696,595.769,499.43,578.894,501.128C561.025,502.926,540.126,501.248,522.613,495.835C505.316,490.487,488.137,479.794,474.372,469.113C461.686,459.269,453.832,449.992,442.211,435.061C424.133,411.835,402.966,363.246,381.437,339.394C365.107,321.302,349.29,309.468,330.253,298.99C310.696,288.225,292.935,284.028,265.327,276.162C218.953,262.948,123.033,251.428,75.71,234.343C45.208,223.331,4,197.386,4,197.386" stroke="#71717a" stroke-width="2" fill="none" stroke-linecap="round" stroke-miterlimit="4"></path><path d="M383.105,796C383.105,796,507.684,716.62,546.734,698.18C566.978,688.621,578.677,684.797,594.975,680.924C610.849,677.153,626.512,675.031,643.216,674.959C661.249,674.881,680.315,677.315,699.497,681.425C720.435,685.911,737.444,691.004,763.819,701.869C809.933,720.866,947.41,796,947.41,796" stroke="#71717a" stroke-width="2" fill="none" stroke-linecap="round" stroke-miterlimit="4"></path><path d="M1191.759,796C1191.759,796,1339.054,729.965,1408.082,694.949C1473.486,661.772,1596,591.829,1596,591.829" stroke="#71717a" stroke-width="2" fill="none" stroke-linecap="round" stroke-miterlimit="4"></path><path d="M1472.903,4C1472.903,4,1217.34,127.412,1160.065,161.616C1137.079,175.344,1130.754,180.297,1113.819,193.939C1090.483,212.737,1059.654,248.149,1035.157,266.667C1016.519,280.755,1008.475,285.759,982.238,298.99C917.009,331.884,694.99,420.883,627.136,443.22C600.719,451.915,588.144,456.355,570.854,457.603C556.43,458.644,543.644,457.455,530.653,453.322C516.787,448.912,502.137,440.413,490.452,430.843C478.784,421.287,470.761,410.249,460.579,395.96C446.786,376.601,432.979,341.803,417.966,323.232C406.65,309.236,397.267,299.835,382.642,290.909C364.987,280.134,346.205,275.096,317.215,266.667C263.204,250.962,129.153,235.196,80.402,215.926C56.481,206.471,43.209,199.228,30.444,185.859C18.033,172.861,4.237,137.374,4.237,137.374" stroke="#71717a" stroke-width="2" fill="none" stroke-linecap="round" stroke-miterlimit="4"></path><path d="M421.018,796C421.018,796,512.672,736.324,554.774,720.064C588.531,707.027,623.282,700.141,651.256,698.411C672.411,697.103,688.945,700.302,707.538,703.902C726.473,707.569,741.261,711.306,763.819,720.409C801.439,735.591,908.365,796,908.365,796" stroke="#71717a" stroke-width="2" fill="none" stroke-linecap="round" stroke-miterlimit="4"></path><path d="M635.176,4.241C635.176,4.241,661.767,67.031,675.377,82.037C683.001,90.444,690.232,93.877,698.447,96.97C706.352,99.945,714.752,101.035,723.618,100.663C733.72,100.239,746.277,97.74,755.779,93.147C764.955,88.712,773.925,81.684,779.899,74C785.593,66.677,788.718,58.414,791.35,48.485C794.678,35.933,795.656,4,795.656,4" stroke="#71717a" stroke-width="2" fill="none" stroke-linecap="round" stroke-miterlimit="4"></path><path d="M1227.205,796L1596,609.945" stroke="#71717a" stroke-width="2" fill="none" stroke-linecap="round" stroke-miterlimit="4"></path><path d="M1452.601,4C1452.601,4,1178.024,117.225,1089.364,169.697C1032.854,203.142,997.442,242.284,959.345,266.667C931.83,284.277,916.24,292.899,885.006,307.071C836.23,329.202,747.723,361.472,691.457,378.61C649.306,391.448,605.115,404.648,578.894,405.829C565.002,406.455,557.069,404.879,546.734,401.06C535.564,396.934,524.752,392.042,514.573,380.871C497.99,362.671,485.692,311.273,469.135,290.909C458.106,277.344,452.99,271.284,434.171,263.024C387.366,242.481,226.986,238.074,160.804,220.603C121.404,210.202,89.255,198.691,69.121,185.859C57.137,178.221,50.891,170.963,44.251,161.616C37.52,152.142,33.027,144.058,29.142,129.293C21.852,101.583,19.436,4,19.436,4" stroke="#71717a" stroke-width="2" fill="none" stroke-linecap="round" stroke-miterlimit="4"></path><path d="M459.173,796C459.173,796,534.887,749.612,570.854,736.824C601.234,726.023,628.57,719.416,659.296,719.268C692.668,719.107,729.512,727.042,763.819,738.973C800.678,751.792,872.546,796,872.546,796" stroke="#71717a" stroke-width="2" fill="none" stroke-linecap="round" stroke-miterlimit="4"></path><path d="M596.331,4C596.331,4,612.12,109.93,627.136,133.302C634.605,144.928,642.456,149.026,653.068,153.535C665.739,158.919,681.939,160.443,699.497,160.125C722.671,159.704,757.255,154.69,779.899,145.72C798.909,138.189,817.673,127.649,828.141,114.314C837.3,102.646,840.883,88.557,842.727,72.727C845.036,52.904,835.453,4,835.453,4" stroke="#71717a" stroke-width="2" fill="none" stroke-linecap="round" stroke-miterlimit="4"></path><path d="M1258.2,796L1596,626.039" stroke="#71717a" stroke-width="2" fill="none" stroke-linecap="round" stroke-miterlimit="4"></path><path d="M1432.145,4C1432.145,4,1291.794,70.743,1214.07,99.097C1128.98,130.139,975.887,164.049,940.704,180.197C931.591,184.379,930.965,184.802,924.623,190.553C911.114,202.801,893.499,239.686,870.736,258.586C845.818,279.275,811.669,294.489,778.721,307.071C744.106,320.289,695.366,331.478,667.337,334.871C650.75,336.88,638.654,336.953,627.136,334.726C617.88,332.936,608.87,330.186,603.015,325.135C597.763,320.605,594.001,313.795,592.533,307.071C590.949,299.809,592.408,290.658,594.867,282.828C597.495,274.46,602.256,265.708,608.513,258.586C615.357,250.795,623.743,244.536,635.176,238.657C651.456,230.285,673.055,225.061,699.497,218.189C740.514,207.53,824.001,196.533,858.652,185.859C876.226,180.445,889.845,176.828,897.175,169.697C901.952,165.05,903.308,160.022,904.486,153.535C906.077,144.769,904.857,135.159,902.362,121.212C897.513,94.116,867.577,4,867.577,4" stroke="#71717a" stroke-width="2" fill="none" stroke-linecap="round" stroke-miterlimit="4"></path><path d="M565.453,4C565.453,4,572.96,33.284,573.733,48.485C574.535,64.246,572.799,80.917,569.73,96.97C566.576,113.465,561.645,131.985,554.774,146.111C548.815,158.362,541.941,169.196,532.64,177.778C523.227,186.462,510.705,192.656,498.492,197.767C485.965,203.011,475.658,205.554,458.291,208.599C427.71,213.962,374.366,219.523,329.648,219.428C280.909,219.325,213.307,212.559,176.884,205.916C156.069,202.12,143.681,198.48,128.643,192.431C114.293,186.659,99.521,179.402,88.442,170.87C78.772,163.423,71.034,155.033,64.738,145.455C58.394,135.804,54.39,127.471,50.593,113.131C43.897,87.842,39.074,4,39.074,4" stroke="#71717a" stroke-width="2" fill="none" stroke-linecap="round" stroke-miterlimit="4"></path><path d="M499.077,796C499.077,796,557.629,762.762,586.935,753.329C613.719,744.709,640.528,739.571,667.337,739.473C694.129,739.376,720.933,744.163,747.739,752.729C777.198,762.143,836.136,796,836.136,796" stroke="#71717a" stroke-width="2" fill="none" stroke-linecap="round" stroke-miterlimit="4"></path><path d="M1286.881,796L1596,640.92" stroke="#71717a" stroke-width="2" fill="none" stroke-linecap="round" stroke-miterlimit="4"></path><path d="M537.871,4C537.871,4,543.605,27.945,543.708,40.404C543.818,53.513,541.91,67.639,537.917,80.808C533.735,94.604,526.783,109.431,518.579,121.212C510.789,132.401,503.401,141.288,490.452,150.213C471.393,163.35,440.22,176.788,410.05,184.799C374.522,194.232,328.965,198.27,289.447,198.465C251.29,198.654,209.529,195.841,176.884,186.837C149.614,179.315,123.194,169.601,105.283,153.535C88.895,138.836,78.797,119.098,71.075,96.97C61.881,70.62,59.15,4,59.15,4" stroke="#71717a" stroke-width="2" fill="none" stroke-linecap="round" stroke-miterlimit="4"></path><path d="M543.423,796C543.423,796,589.191,774.344,611.055,768.415C630.345,763.185,647.941,760.475,667.337,760.352C688.053,760.219,710.615,763.004,731.658,768.73C753.476,774.667,795.832,796,795.832,796" stroke="#71717a" stroke-width="2" fill="none" stroke-linecap="round" stroke-miterlimit="4"></path><path d="M1411.222,4C1411.222,4,1260.745,69.573,1206.03,87.605C1170.913,99.179,1146.548,104.916,1117.588,110.171C1090.326,115.118,1060.565,119.307,1037.186,118.985C1019.046,118.735,1003.067,116.817,988.945,112.345C976.769,108.49,966.851,103.489,956.784,95.742C945.199,86.826,934.149,74.157,924.623,60.203C913.719,44.23,896.607,4,896.607,4" stroke="#71717a" stroke-width="2" fill="none" stroke-linecap="round" stroke-miterlimit="4"></path><path d="M1314.204,796C1314.204,796,1394.761,749.692,1439.212,727.273C1488.108,702.611,1596,655.066,1596,655.066" stroke="#71717a" stroke-width="2" fill="none" stroke-linecap="round" stroke-miterlimit="4"></path><path d="M511.819,4C511.819,4,516.606,28.672,516.075,40.404C515.571,51.541,513.219,62.244,509.291,72.727C505.131,83.829,498.509,95.49,491.201,105.051C484.113,114.322,477.928,121.537,466.332,129.44C447.892,142.005,415.669,157.179,385.93,165.41C352.191,174.749,308.629,178.911,273.367,178.915C242.111,178.919,211.001,176.274,184.925,168.326C162.139,161.382,139.838,151.484,124.367,137.374C110.155,124.412,100.984,108.177,93.668,88.889C84.712,65.278,79.911,4,79.911,4" stroke="#71717a" stroke-width="2" fill="none" stroke-linecap="round" stroke-miterlimit="4"></path><path d="M601.373,796C601.373,796,651.416,783.065,675.377,783.299C698.082,783.521,741.589,796,741.589,796" stroke="#71717a" stroke-width="2" fill="none" stroke-linecap="round" stroke-miterlimit="4"></path><path d="M1389.569,4C1389.569,4,1276.65,54.391,1222.111,69.644C1172.824,83.427,1112.773,93.282,1077.387,94.754C1057.068,95.599,1044.76,94.113,1029.146,90.467C1013.434,86.799,996.988,80.924,983.428,72.727C970.291,64.786,958.605,53.965,948.744,42.474C938.934,31.042,924.363,4,924.363,4" stroke="#71717a" stroke-width="2" fill="none" stroke-linecap="round" stroke-miterlimit="4"></path><path d="M1340.921,796C1340.921,796,1421.204,748.798,1463.317,727.756C1506.183,706.337,1596,668.799,1596,668.799" stroke="#71717a" stroke-width="2" fill="none" stroke-linecap="round" stroke-miterlimit="4"></path><path d="M486.166,4C486.166,4,490.041,22.608,489.604,32.323C489.134,42.78,488.077,53.388,482.694,64.646C475.188,80.345,459.598,101.187,442.211,114.562C422.895,129.42,396.306,139.603,369.849,147.051C340.553,155.299,303.226,159.214,273.367,159.352C247.522,159.472,223.055,157.563,201.005,150.807C180.444,144.509,159.438,135.18,144.724,121.721C130.639,108.838,120.737,91.239,113.593,72.727C105.763,52.437,101.756,4,101.756,4" stroke="#71717a" stroke-width="2" fill="none" stroke-linecap="round" stroke-miterlimit="4"></path><path d="M1366.756,4C1366.756,4,1268.719,45.182,1222.111,57.24C1180.637,67.97,1132.709,74.787,1101.508,75.918C1081.858,76.63,1068.455,74.977,1053.266,71.993C1039.089,69.207,1025.359,65.071,1013.065,59.256C1001.338,53.709,990.747,47.04,980.905,38.33C970.265,28.914,952.065,4,952.065,4" stroke="#71717a" stroke-width="2" fill="none" stroke-linecap="round" stroke-miterlimit="4"></path><path d="M1367.563,796C1367.563,796,1436.911,753.963,1474.154,735.354C1512.914,715.986,1596,682.467,1596,682.467" stroke="#71717a" stroke-width="2" fill="none" stroke-linecap="round" stroke-miterlimit="4"></path><path d="M459.974,4C459.974,4,462.911,40.674,456.448,56.566C449.599,73.405,434.177,89.654,418.09,101.593C400.567,114.597,376.902,123.389,353.769,129.676C328.921,136.43,298.652,139.643,273.367,139.296C250.709,138.984,227.928,136.263,209.045,129.8C192.415,124.108,177.154,116.157,165.105,105.051C153.016,93.908,143.31,78.956,136.683,62.998C129.472,45.63,125.165,4,125.165,4" stroke="#71717a" stroke-width="2" fill="none" stroke-linecap="round" stroke-miterlimit="4"></path><path d="M1342.18,4C1342.18,4,1261.186,35.807,1222.111,45.085C1186.482,53.545,1150.11,59.962,1117.588,59.446C1088.995,58.993,1060.64,55.749,1037.186,45.789C1015.385,36.531,980.458,4,980.458,4" stroke="#71717a" stroke-width="2" fill="none" stroke-linecap="round" stroke-miterlimit="4"></path><path d="M1394.648,796C1394.648,796,1453.14,759.577,1485.413,743.434C1519.962,726.153,1596,696.333,1596,696.333" stroke="#71717a" stroke-width="2" fill="none" stroke-linecap="round" stroke-miterlimit="4"></path><path d="M432.064,4C432.064,4,434.029,35.343,428.925,48.485C423.895,61.437,414.001,72.826,402.01,82.426C387.606,93.958,365.62,103.653,345.729,109.607C325.462,115.674,302.119,118.319,281.407,118.134C262.008,117.961,241.524,115.245,225.126,109.65C210.926,104.804,198.41,98.342,187.84,88.889C176.8,79.014,166.942,64.996,160.804,50.975C154.573,36.742,150.998,4,150.998,4" stroke="#71717a" stroke-width="2" fill="none" stroke-linecap="round" stroke-miterlimit="4"></path><path d="M1314.866,4C1314.866,4,1252.958,26.248,1222.111,32.955C1192.565,39.38,1161.655,44.379,1133.668,44.125C1108.322,43.895,1082.608,41.132,1061.307,33.648C1042.261,26.957,1010.931,4,1010.931,4" stroke="#71717a" stroke-width="2" fill="none" stroke-linecap="round" stroke-miterlimit="4"></path><path d="M1423.116,795.868C1423.116,795.868,1471.414,765.157,1498.688,751.515C1528.617,736.545,1596,710.732,1596,710.732" stroke="#71717a" stroke-width="2" fill="none" stroke-linecap="round" stroke-miterlimit="4"></path><path d="M400.418,4C400.418,4,401.718,29.854,397.664,40.404C393.849,50.331,386.643,58.652,377.889,65.974C367.522,74.645,352.117,82.191,337.688,86.933C322.715,91.854,304.812,94.198,289.447,94.447C275.453,94.673,261.83,93.244,249.246,89.513C237.018,85.888,224.729,80.674,214.875,72.727C204.652,64.483,195.007,52.187,189.38,40.404C184.022,29.184,181.119,4,181.119,4" stroke="#71717a" stroke-width="2" fill="none" stroke-linecap="round" stroke-miterlimit="4"></path><path d="M1282.869,4C1282.869,4,1230.673,19.534,1206.03,23.733C1183.8,27.522,1162.408,29.77,1141.709,29.292C1122.297,28.843,1102.286,26.559,1085.427,21.795C1070.619,17.61,1045.404,4,1045.404,4" stroke="#71717a" stroke-width="2" fill="none" stroke-linecap="round" stroke-miterlimit="4"></path><path d="M1453.217,796C1453.217,796,1492.52,770.755,1514.919,759.596C1539.704,747.249,1596,726.139,1596,726.139" stroke="#71717a" stroke-width="2" fill="none" stroke-linecap="round" stroke-miterlimit="4"></path><path d="M359.279,4C359.279,4,361.2,17.709,359.273,24.242C357.133,31.499,351.766,39.547,345.729,45.219C339.375,51.188,330.535,55.7,321.608,58.741C311.93,62.039,301.095,64.611,289.447,63.463C274.828,62.022,252.24,54.488,241.206,46.275C233.169,40.293,228.45,31.923,225.126,24.374C222.219,17.773,221.074,4,221.074,4" stroke="#71717a" stroke-width="2" fill="none" stroke-linecap="round" stroke-miterlimit="4"></path><path d="M1238.191,4.48C1238.191,4.48,1183.381,14.92,1157.789,14.528C1134.309,14.168,1090.399,4,1090.399,4" stroke="#71717a" stroke-width="2" fill="none" stroke-linecap="round" stroke-miterlimit="4"></path><path d="M1487.437,795.904L1595.673,743.434" stroke="#71717a" stroke-width="2" fill="none" stroke-linecap="round" stroke-miterlimit="4"></path><path d="M1529.015,796L1596,764.241" stroke="#71717a" stroke-width="2" fill="none" stroke-linecap="round" stroke-miterlimit="4"></path></svg>